<svg width="12" height="9" viewBox="0 0 14 9" fill="none" xmlns="http://www.w3.org/2000/svg">
<path d="M7.00413 5.95198L11.8391 1.11298C11.9237 1.02787 12.0243 0.96032 12.1351 0.914227C12.2458 0.868135 12.3646 0.844405 12.4846 0.844405C12.6046 0.844405 12.7234 0.868135 12.8342 0.914227C12.945 0.96032 13.0456 1.02787 13.1301 1.11298C13.3 1.28547 13.3953 1.51786 13.3953 1.75998C13.3953 2.00209 13.3 2.23449 13.1301 2.40698L7.65113 7.88898C7.48495 8.05477 7.26123 8.1501 7.02655 8.15513C6.79186 8.16016 6.56426 8.0745 6.39113 7.91598L0.87413 2.41098C0.787512 2.32658 0.718503 2.22583 0.671104 2.11457C0.623706 2.00331 0.598859 1.88374 0.598003 1.76281C0.597148 1.64188 0.620302 1.52197 0.666122 1.41005C0.711943 1.29813 0.77952 1.19642 0.864937 1.1108C0.950354 1.02519 1.05191 0.957374 1.16372 0.911294C1.27554 0.865214 1.39539 0.841782 1.51632 0.842357C1.63726 0.842931 1.75688 0.8675 1.86825 0.91464C1.97962 0.961781 2.08053 1.03055 2.16513 1.11698L7.00413 5.95198Z" fill="black"/>
</svg>
