<svg width="23" height="20" viewBox="0 0 25 26" fill="none" xmlns="http://www.w3.org/2000/svg">
<path d="M21.18 1.12891H3.454C2.67079 1.1297 1.91989 1.44118 1.36608 1.99499C0.812273 2.5488 0.500794 3.2997 0.5 4.08291V17.3779C0.501588 18.1606 0.813417 18.9107 1.36714 19.4639C1.92087 20.017 2.67131 20.3281 3.454 20.3289H7.886V24.2069C7.88608 24.3093 7.91449 24.4097 7.96808 24.4969C8.02167 24.5842 8.09836 24.6549 8.18966 24.7013C8.28096 24.7477 8.3833 24.7679 8.48537 24.7597C8.58745 24.7515 8.68526 24.7152 8.768 24.6549L14.533 20.3289H21.18C21.9632 20.3281 22.7141 20.0166 23.2679 19.4628C23.8217 18.909 24.1332 18.1581 24.134 17.3749V4.08291C24.1332 3.2997 23.8217 2.5488 23.2679 1.99499C22.7141 1.44118 21.9632 1.1297 21.18 1.12891V1.12891Z" stroke="#48463E" stroke-opacity="0.48"/>
</svg>
