<svg width="15" height="15" viewBox="0 0 24 26" fill="none" xmlns="http://www.w3.org/2000/svg">
<path d="M21.877 8.466C17.961 1.52 6.47604 0 6.47604 0C6.47604 0 11.776 5.787 5.00304 10.363C0.721043 13.252 -0.971957 17 0.862043 21.1C2.26204 24.24 5.23904 25.519 8.44204 26C6.91104 23.112 8.09604 19.584 8.22704 19.206C11.22 23.735 16.876 19.206 14.035 14.284C17.757 15.091 18.312 21.549 15.456 25.584C17.2803 25.045 18.9448 24.0676 20.3045 22.7373C21.6641 21.407 22.6774 19.7641 23.256 17.952C24.0042 14.73 23.5119 11.3445 21.877 8.469V8.466Z" fill="black"/>
</svg>
