<svg width="27" height="23" viewBox="0 0 29 26" fill="none" xmlns="http://www.w3.org/2000/svg">
<path d="M27.8889 9.50188L18.6029 1.48388C18.4193 1.32565 18.1941 1.22342 17.9541 1.18934C17.714 1.15526 17.4693 1.19075 17.2488 1.29161C17.0284 1.39246 16.8415 1.55445 16.7103 1.75834C16.5792 1.96223 16.5093 2.19946 16.5089 2.44188V6.66588C8.03494 6.76288 1.31494 8.46088 1.31494 16.4919C1.39945 18.0889 1.83809 19.6472 2.59909 21.0539C3.36009 22.4605 4.4244 23.6803 5.71494 24.6249C5.87036 24.7438 6.05902 24.8113 6.25461 24.8178C6.45019 24.8244 6.64295 24.7698 6.806 24.6615C6.96905 24.5533 7.09426 24.3969 7.16416 24.2141C7.23406 24.0313 7.24517 23.8313 7.19594 23.6419C4.80394 15.9909 8.33094 13.9599 16.5129 13.8419V18.4799C16.5133 18.7223 16.5832 18.9595 16.7143 19.1634C16.8455 19.3673 17.0324 19.5293 17.2528 19.6302C17.4733 19.731 17.718 19.7665 17.9581 19.7324C18.1981 19.6983 18.4233 19.5961 18.6069 19.4379L27.8929 11.4189C28.0303 11.2997 28.1403 11.1523 28.2156 10.9867C28.291 10.8212 28.3297 10.6413 28.3293 10.4595C28.329 10.2776 28.2894 10.0979 28.2134 9.93271C28.1375 9.76747 28.0268 9.62054 27.8889 9.50188Z" stroke="#48463E" stroke-opacity="0.48"/>
</svg>
